# xmcd CD database file
# Copyright (C) 2005 Ti Kan
# 
# Track frame offsets:
#     150
#     16599
#     27122
#     39296
#     50920
#     66105
#     86108
#     95368
#     108060
#     120293
#     130198
#     143587
#     154672
#     176432
#     185426
#     196986
#     211336
#     224031
#     243014
#     260566
# 
# Disc length: 3502 seconds
# 
# Revision: 1
# Processed by: cddbd v1.5.1PL0 Copyright (c) Steve Scherf et al.
# Submitted via: DiscPlay 4.0.4
# 
DISCID=090dac14
DTITLE=Darts - Darts live at the Rock Garden
DYEAR=1900
DGENRE=
TTITLE0=It Ain't The Meat It's The Motion
TTITLE1=Think
TTITLE2=Young Blood
TTITLE3=As Long As I'm Moving
TTITLE4=Precious Times
TTITLE5=Love Pie
TTITLE6=Summertime Summertime
TTITLE7=Zing Went The Strings
TTITLE8=Love Bandit
TTITLE9=At My Front Door
TTITLE10=Naff Off
TTITLE11=Mainliner
TTITLE12=I'm Mad
TTITLE13=Hammy's Boogie
TTITLE14=Honey Love
TTITLE15=So Hard To Laugh
TTITLE16=Gotta Go Home
TTITLE17=Sweet Sweet Love
TTITLE18=Annual County Fair
TTITLE19=Sh-Boom
EXTD=
EXTT0=
EXTT1=
EXTT2=
EXTT3=
EXTT4=
EXTT5=
EXTT6=
EXTT7=
EXTT8=
EXTT9=
EXTT10=
EXTT11=
EXTT12=
EXTT13=
EXTT14=
EXTT15=
EXTT16=
EXTT17=
EXTT18=
EXTT19=
PLAYORDER=
